<?xml version="1.0" encoding="UTF-8"?> <svg xmlns="http://www.w3.org/2000/svg" width="593" height="200" viewBox="0 0 593 200" fill="none"> <path d="M121.463 28.1344C122.53 23.5584 123.551 18.9602 124.39 14.2773C125.248 9.60452 125.998 4.87931 126.412 -0.0011158C122.931 3.45207 119.783 7.0625 116.742 10.7213C113.683 14.3721 110.808 18.1075 107.977 21.8651C107.217 22.8952 106.475 23.9354 105.725 24.9695C110.923 26.7656 115.88 29.0718 120.527 31.8477C120.838 30.6119 121.159 29.3762 121.463 28.1344Z" fill="#FFCD1C"></path> <path d="M37.8589 171.883C36.7873 176.457 35.7622 181.053 34.9171 185.732C34.0558 190.404 33.2996 195.126 32.875 200C36.3465 196.543 39.4885 192.928 42.5253 189.27C45.5783 185.615 48.4513 181.879 51.2758 178.12C52.034 177.09 52.774 176.051 53.5241 175.019C48.3522 173.227 43.421 170.931 38.797 168.171C38.4836 169.407 38.1621 170.641 37.8589 171.883Z" fill="#FFCD1C"></path> <path d="M120.525 31.8483C119.69 35.1503 118.829 38.4382 117.891 41.6918C116.646 46.1852 115.267 50.6181 113.829 55.0227C108.077 72.6374 101.16 89.7139 93.3619 106.377C85.5394 123.032 76.8677 139.29 67.0213 155.004C64.5567 158.931 62.0475 162.836 59.3908 166.674C57.4943 169.484 55.523 172.256 53.5234 175.018C61.7079 177.85 70.4908 179.41 79.6417 179.41C123.629 179.41 159.286 143.856 159.286 100.001C159.286 71.0469 143.742 45.7235 120.525 31.8483Z" fill="#FFCD1C"></path> <path d="M45.4956 144.997C51.2397 127.377 58.1584 110.302 65.9244 93.6229C73.7166 76.9536 82.3883 60.6956 92.2245 44.9778C94.6851 41.0509 97.2044 37.1482 99.855 33.308C101.754 30.5019 103.727 27.73 105.726 24.9703C97.5521 22.1461 88.7813 20.5918 79.6426 20.5918C35.6573 20.5918 0 56.1438 0 100.001C0 128.967 15.5601 154.301 38.7972 168.172C39.6323 164.87 40.4936 161.582 41.4337 158.326C42.6751 153.831 44.0641 149.404 45.4956 144.997Z" fill="#FFCD1C"></path> <path d="M197.527 72.1866H215.18V145.504H197.527V72.1866ZM197.527 47.5728H215.18V63.7179H197.527V47.5728Z" fill="#1D1D1B"></path> <path d="M229.387 72.1866H245.58V78.9357H245.847C248.234 75.8918 254.076 69.8038 266.023 69.8038C283.012 69.8038 294.69 81.9797 294.69 102.626V145.504H277.038V106.596C277.038 90.1843 269.207 86.4771 262.304 86.4771C247.97 86.4771 247.039 100.108 247.039 106.596V145.504H229.387V72.1866Z" fill="#1D1D1B"></path> <path d="M311.686 87.8055H303.057V72.1905H311.686V47.5747H329.339V72.1905H339.955V87.8055H329.339V145.508H311.686V87.8055Z" fill="#1D1D1B"></path> <path d="M404.201 101.038C401.677 91.7749 393.847 86.4792 384.823 86.4792C375.132 86.4792 367.302 92.3051 364.38 101.038H404.201ZM364.647 116.653C366.903 125.656 374.469 131.211 383.893 131.211C389.601 131.211 395.972 129.625 400.353 124.331H420.262C410.438 147.621 388.008 147.887 384.556 147.887C358.143 147.887 345.666 126.186 345.666 109.377C345.666 92.5671 358.274 69.8059 384.823 69.8059C407.254 69.8059 422.65 87.0114 422.65 108.847C422.65 111.492 422.65 114.01 422.252 116.653H364.647Z" fill="#1D1D1B"></path> <path d="M433.805 72.1866H450V78.8027H450.265C453.716 72.4507 460.218 69.1426 467.254 69.8038V86.8763C451.195 86.7452 451.457 101.961 451.457 105.934V145.504H433.805V72.1866Z" fill="#1D1D1B"></path> <path d="M476.281 72.1866H492.474V78.8027H492.741C496.192 72.4507 502.695 69.1426 509.731 69.8038V86.8763C493.669 86.7452 493.934 101.961 493.934 105.934V145.504H476.281V72.1866Z" fill="#1D1D1B"></path> <path d="M532.698 109.507C532.698 121.948 541.46 131.211 554.333 131.211C566.944 131.211 575.439 122.08 575.439 108.714C575.439 96.0082 567.075 86.4792 554.333 86.4792C541.592 86.4792 532.698 96.2743 532.698 109.507ZM592.031 145.504H575.836V135.582H575.571C567.075 147.223 554.865 147.887 551.015 147.887C532.301 147.887 515.047 133.199 515.047 109.507C515.047 86.4792 531.238 69.8059 551.547 69.8059C562.033 69.8059 570.263 74.1723 575.571 82.5099H575.836V72.1887H592.031V145.504Z" fill="#1D1D1B"></path> </svg> 